<svg width="350" height="350" viewBox="0 0 350 350" fill="none" xmlns="http://www.w3.org/2000/svg">
    <rect width="350" height="350" rx="59" fill="white" />
    <path fill-rule="evenodd" clip-rule="evenodd"
        d="M271.115 227.55C271.113 228.08 271.062 228.609 270.96 229.129C271.193 230.328 271.158 231.563 270.857 232.747C270.556 233.931 269.998 235.033 269.221 235.975C268.444 236.918 267.469 237.677 266.365 238.198C265.26 238.719 264.054 238.989 262.833 238.99H108.25C106.437 238.99 104.643 239.347 102.968 240.04C101.294 240.734 99.7721 241.75 98.4904 243.032C97.2088 244.314 96.1921 245.835 95.4985 247.51C94.8049 249.184 94.4479 250.979 94.4479 252.792C94.4479 254.604 94.8049 256.399 95.4985 258.073C96.1921 259.748 97.2088 261.27 98.4904 262.551C99.7721 263.833 101.294 264.85 102.968 265.543C104.643 266.237 106.437 266.594 108.25 266.594H262.833C265.03 266.594 267.136 267.466 268.689 269.019C270.242 270.572 271.115 272.679 271.115 274.875C271.115 277.071 270.242 279.178 268.689 280.731C267.136 282.284 265.03 283.156 262.833 283.156H108.25C100.197 283.156 92.4734 279.957 86.779 274.263C81.0845 268.568 77.8854 260.845 77.8854 252.792V98.2083C77.8854 90.1551 81.0845 82.4318 86.779 76.7373C92.4734 71.0429 100.197 67.8438 108.25 67.8438H256.208C264.445 67.8438 271.115 74.5129 271.115 82.75V227.55ZM141.375 112.01C139.179 112.01 137.072 112.883 135.519 114.436C133.966 115.989 133.094 118.095 133.094 120.292C133.094 122.488 133.966 124.594 135.519 126.147C137.072 127.7 139.179 128.573 141.375 128.573H207.625C209.821 128.573 211.928 127.7 213.481 126.147C215.034 124.594 215.906 122.488 215.906 120.292C215.906 118.095 215.034 115.989 213.481 114.436C211.928 112.883 209.821 112.01 207.625 112.01H141.375Z"
        fill="#00C682" />
</svg>